<svg width="44" height="58" viewBox="0 0 44 58" fill="none" xmlns="http://www.w3.org/2000/svg">
<path opacity="0.3" d="M42.4857 27.4845H23.6496C21.8088 27.4845 20.8861 25.2584 22.1896 23.9572L35.508 10.6389C36.0997 10.0472 36.0997 9.08594 35.508 8.49654C34.9163 7.90486 33.9551 7.90486 33.3635 8.49654L20.0451 21.8149C18.7439 23.1161 16.5177 22.1957 16.5177 20.3527V1.51658C16.5177 0.677806 15.8399 0 15.0011 0C14.1624 0 13.4846 0.677806 13.4846 1.51658V20.3527C13.4846 22.1935 11.2584 23.1161 9.95717 21.8149L-3.36118 8.49654C-3.95285 7.90486 -4.91403 7.90486 -5.50571 8.49654C-6.09738 9.08821 -6.09738 10.0472 -5.50571 10.6389L7.81264 23.9572C9.11387 25.2584 8.19348 27.4845 6.35271 27.4845H-12.4834C-13.3199 27.4845 -14 28.1624 -14 29.0012C-14 29.8399 -13.3222 30.5177 -12.4834 30.5177H6.35271C8.19348 30.5177 9.11614 32.7439 7.81264 34.0451L-5.50571 47.3635C-6.09738 47.9552 -6.09738 48.9141 -5.50571 49.5058C-4.91403 50.0974 -3.95512 50.0974 -3.36118 49.5058L9.95717 36.1874C11.2584 34.8862 13.4846 35.8065 13.4846 37.6473V56.4834C13.4846 57.3199 14.1624 58 15.0011 58C15.8399 58 16.5177 57.3199 16.5177 56.4834V37.6473C16.5177 35.8065 18.7439 34.8839 20.0451 36.1851L33.3635 49.5035C33.9551 50.0952 34.914 50.0952 35.508 49.5035C36.0997 48.9118 36.0997 47.9506 35.508 47.3612L22.1896 34.0429C20.8884 32.7416 21.8088 30.5155 23.6496 30.5155H42.4857C43.3222 30.5155 44.0023 29.8377 44.0023 28.9989C44.0023 28.1601 43.3245 27.4823 42.4857 27.4823V27.4845Z" fill="#000D12"/>
</svg>
