<svg width="9" height="10" viewBox="0 0 9 10" fill="none" xmlns="http://www.w3.org/2000/svg">
<path fill-rule="evenodd" clip-rule="evenodd" d="M1.45038 1.41493C2.07529 0.60926 3.04369 0 4.3752 0C5.70644 0 6.67483 0.609276 7.29982 1.41491C7.91492 2.20786 8.20122 3.19306 8.20122 3.99207C8.20122 4.22141 8.19428 4.39167 8.189 4.52086C8.18787 4.54744 8.18685 4.57224 8.18599 4.59549C8.18083 4.73446 8.18185 4.80124 8.19256 4.86736C8.21688 5.0178 8.29382 5.2031 8.60126 5.88067C8.60432 5.88745 8.60723 5.89434 8.60992 5.90128C8.83203 6.4729 8.78236 6.99879 8.51818 7.4444C8.26605 7.86968 7.84234 8.18277 7.3843 8.41128C6.46838 8.86819 5.2576 9.06485 4.3752 9.06485C3.49253 9.06485 2.28161 8.86819 1.36568 8.41128C0.907656 8.18277 0.483942 7.86962 0.231909 7.44435C-0.0322143 6.99868 -0.0817686 6.47279 0.140505 5.90117C0.14319 5.89428 0.146068 5.88745 0.149135 5.88067C0.456582 5.2031 0.533534 5.0178 0.557838 4.86736C0.568523 4.80124 0.569578 4.73446 0.564381 4.59549C0.563509 4.57224 0.562492 4.54744 0.561405 4.52086C0.556116 4.39167 0.549148 4.22141 0.549148 3.99207C0.549148 3.1931 0.83531 2.2079 1.45038 1.41493ZM2.0881 1.90958C1.58838 2.55384 1.35622 3.3629 1.35622 3.99207C1.35622 4.20358 1.36245 4.35637 1.3677 4.48502C1.36883 4.51279 1.36992 4.53942 1.37089 4.5653C1.37624 4.70837 1.37906 4.8446 1.35458 4.99612C1.30911 5.27752 1.17088 5.58216 0.894334 6.19161L0.888937 6.20345C0.755028 6.55463 0.79798 6.8165 0.926213 7.0329C1.06773 7.27169 1.33899 7.49606 1.72596 7.68911C2.50002 8.07521 3.5791 8.25777 4.3752 8.25777C5.17098 8.25777 6.24998 8.07521 7.02402 7.68911C7.41104 7.49606 7.68232 7.27169 7.82394 7.03285C7.95221 6.81645 7.9952 6.55458 7.86144 6.20345L7.85606 6.19156C7.5795 5.58216 7.44128 5.27752 7.39581 4.99612C7.37133 4.8446 7.37413 4.70837 7.37951 4.5653C7.38048 4.53947 7.38155 4.51279 7.38268 4.48502C7.38796 4.35638 7.39414 4.20358 7.39414 3.99207C7.39414 3.36294 7.16192 2.55388 6.66213 1.9096C6.17213 1.278 5.4293 0.807074 4.3752 0.807074C3.32084 0.807074 2.57797 1.27801 2.0881 1.90958Z" fill="#0D0D0C"/>
</svg>
