<svg width="31" height="31" viewBox="0 0 31 31" fill="none" xmlns="http://www.w3.org/2000/svg">
<path fill-rule="evenodd" clip-rule="evenodd" d="M15.0057 30.0114C23.2931 30.0114 30.0114 23.2931 30.0114 15.0057C30.0114 6.71828 23.2931 0 15.0057 0C6.71826 0 0 6.71828 0 15.0057C0 23.2931 6.71826 30.0114 15.0057 30.0114ZM19.687 6.99028C19.9148 6.18088 19.1293 5.70226 18.412 6.21333L8.39802 13.3472C7.62005 13.9015 7.74242 15.0057 8.58184 15.0057H11.2188V14.9853H16.3581L12.1705 16.4628L10.3245 23.0211C10.0966 23.8305 10.882 24.3091 11.5994 23.798L21.6134 16.6642C22.3914 16.1099 22.2689 15.0057 21.4296 15.0057H17.4307L19.687 6.99028Z" fill="#586E84"/>
</svg>
