<svg width="13" height="13" viewBox="0 0 13 13" fill="none" xmlns="http://www.w3.org/2000/svg">
<path d="M11.7418 4.6205C11.6861 4.63185 11.6332 4.65404 11.5862 4.68582C11.5391 4.71761 11.4988 4.75835 11.4674 4.80573C11.4361 4.85311 11.4145 4.90619 11.4037 4.96195C11.3929 5.0177 11.3932 5.07504 11.4045 5.13069C11.6247 6.20897 11.5059 7.32897 11.0645 8.33708C10.623 9.34519 9.88043 10.192 8.93866 10.7615C7.99688 11.3309 6.902 11.595 5.80418 11.5176C4.70637 11.4402 3.65939 11.025 2.80685 10.329C1.9543 9.63309 1.33795 8.69042 1.04232 7.63033C0.746685 6.57024 0.786258 5.44465 1.15561 4.40795C1.52496 3.37124 2.20599 2.47418 3.10531 1.83982C4.00463 1.20545 5.07818 0.86485 6.17871 0.864722C6.72116 0.864203 7.26047 0.946831 7.77787 1.10973C7.88649 1.14183 8.00337 1.13002 8.10337 1.07685C8.20338 1.02368 8.27853 0.933394 8.31266 0.8254C8.3468 0.717405 8.33719 0.600328 8.28591 0.499341C8.23464 0.398353 8.14578 0.321519 8.03844 0.285358C6.7435 -0.12046 5.35106 -0.0893428 4.07554 0.373918C2.80002 0.837179 1.71216 1.70689 0.979463 2.84914C0.246767 3.99138 -0.0901254 5.34281 0.0206617 6.69532C0.131449 8.04783 0.683772 9.32642 1.59258 10.3342C2.50139 11.342 3.71628 12.0231 5.05019 12.2726C6.38409 12.5221 7.76304 12.3262 8.97468 11.7151C10.1863 11.1039 11.1635 10.1115 11.7556 8.89044C12.3478 7.66942 12.5222 6.2876 12.2519 4.95774C12.2289 4.84543 12.1622 4.74685 12.0666 4.68363C11.9709 4.6204 11.8541 4.5977 11.7418 4.6205ZM6.16603 9.51195C6.2807 9.51195 6.39067 9.46639 6.47176 9.38531C6.55284 9.30423 6.59839 9.19425 6.59839 9.07959V8.84899C6.94463 8.79911 7.26278 8.63046 7.49839 8.37189C7.734 8.11332 7.87244 7.78091 7.89001 7.43154C7.90758 7.08216 7.80319 6.73754 7.59471 6.45664C7.38623 6.17573 7.08661 5.97601 6.74713 5.89164L5.82014 5.66105C5.67861 5.62565 5.55323 5.54335 5.46445 5.42757C5.37643 5.31486 5.3291 5.17569 5.33013 5.03268C5.33074 4.86149 5.39914 4.6975 5.52036 4.5766C5.64158 4.45571 5.80575 4.38775 5.97695 4.3876H6.38048C6.53981 4.38789 6.69345 4.44682 6.81211 4.55314C6.93077 4.65946 7.00613 4.80574 7.02384 4.96408C7.02856 5.02176 7.04481 5.07789 7.07163 5.12917C7.09845 5.18045 7.13529 5.22582 7.17996 5.2626C7.22464 5.29938 7.27624 5.32681 7.33172 5.34328C7.38719 5.35974 7.44541 5.36491 7.50291 5.35846C7.56042 5.35202 7.61605 5.33409 7.6665 5.30575C7.71695 5.27742 7.7612 5.23924 7.79663 5.19348C7.83205 5.14773 7.85793 5.09532 7.87273 5.03938C7.88753 4.98344 7.89096 4.9251 7.88279 4.86781C7.84573 4.53578 7.69951 4.22545 7.46706 3.98548C7.23461 3.74552 6.92908 3.5895 6.59839 3.5419V3.31477C6.59839 3.2001 6.55284 3.09013 6.47176 3.00904C6.39067 2.92796 6.2807 2.88241 6.16603 2.88241C6.05136 2.88241 5.94139 2.92796 5.86031 3.00904C5.77922 3.09013 5.73367 3.2001 5.73367 3.31477V3.54536C5.39074 3.60115 5.07756 3.77356 4.84699 4.03347C4.61643 4.29339 4.4826 4.62489 4.46811 4.97203C4.45361 5.31917 4.55933 5.66068 4.76742 5.93891C4.9755 6.21714 5.27322 6.41506 5.6103 6.49925L6.53729 6.72985C6.6903 6.76838 6.82398 6.86147 6.91319 6.99162C7.0024 7.12178 7.041 7.28003 7.02175 7.43665C7.00249 7.59326 6.92669 7.73745 6.80861 7.84211C6.69052 7.94678 6.53828 8.00471 6.38048 8.00502H5.97695C5.81762 8.00473 5.66398 7.94581 5.54532 7.83949C5.42666 7.73316 5.35129 7.58688 5.33359 7.42854C5.32887 7.37087 5.31262 7.31473 5.2858 7.26345C5.25898 7.21218 5.22214 7.16681 5.17746 7.13003C5.13279 7.09325 5.08119 7.06581 5.02571 7.04935C4.97024 7.03288 4.91202 7.02772 4.85452 7.03416C4.79701 7.04061 4.74138 7.05853 4.69093 7.08687C4.64048 7.11521 4.59623 7.15339 4.5608 7.19914C4.52538 7.2449 4.4995 7.2973 4.4847 7.35324C4.46989 7.40918 4.46647 7.46753 4.47463 7.52481C4.51095 7.85279 4.65372 8.15984 4.8811 8.39898C5.10848 8.63812 5.40794 8.79619 5.73367 8.84899V9.07959C5.73367 9.19425 5.77922 9.30423 5.86031 9.38531C5.94139 9.46639 6.05136 9.51195 6.16603 9.51195ZM10.485 3.6203C10.5662 3.70113 10.676 3.74651 10.7906 3.74651C10.9051 3.74651 11.015 3.70113 11.0961 3.6203L12.2491 2.46734C12.3254 2.38538 12.367 2.27697 12.365 2.16496C12.3631 2.05295 12.3177 1.94608 12.2385 1.86687C12.1593 1.78765 12.0524 1.74227 11.9404 1.7403C11.8284 1.73832 11.72 1.7799 11.638 1.85627L11.2229 2.27076V0.432361C11.2229 0.317692 11.1774 0.207719 11.0963 0.126636C11.0152 0.0455522 10.9052 0 10.7906 0C10.6759 0 10.5659 0.0455522 10.4848 0.126636C10.4038 0.207719 10.3582 0.317692 10.3582 0.432361V2.27076L9.94314 1.85627C9.86118 1.7799 9.75277 1.73832 9.64076 1.7403C9.52875 1.74227 9.42188 1.78765 9.34266 1.86687C9.26345 1.94608 9.21807 2.05295 9.21609 2.16496C9.21412 2.27697 9.2557 2.38538 9.33207 2.46734L10.485 3.6203Z" fill="#0D0D0C"/>
</svg>
