<svg width="10" height="7" viewBox="0 0 10 7" fill="none" xmlns="http://www.w3.org/2000/svg">
<path d="M2.83168 5.5637L0.931856 3.66388C0.829486 3.56151 0.690642 3.504 0.545869 3.504C0.401095 3.504 0.262251 3.56151 0.159881 3.66388C0.057511 3.76625 0 3.90509 0 4.04987C0 4.12155 0.0141194 4.19253 0.0415519 4.25876C0.0689843 4.32499 0.109193 4.38517 0.159881 4.43585L2.44843 6.7244C2.66196 6.93793 3.00688 6.93793 3.22041 6.7244L9.01295 0.931856C9.11532 0.829486 9.17283 0.690642 9.17283 0.545869C9.17283 0.401095 9.11532 0.262252 9.01295 0.159881C8.91058 0.0575111 8.77174 0 8.62696 0C8.48219 0 8.34335 0.0575111 8.24098 0.159881L2.83168 5.5637Z" fill="#E9F4F9"/>
</svg>
