<svg width="13" height="13" viewBox="0 0 13 13" fill="none" xmlns="http://www.w3.org/2000/svg">
<path d="M6.06814 6.91705C4.07928 6.95294 4.07971 9.90812 6.06814 9.94358C8.057 9.90769 8.05657 6.9525 6.06814 6.91705ZM6.06814 9.07886C5.22028 9.07453 5.22028 7.7861 6.06814 7.78177C6.916 7.7861 6.916 9.07453 6.06814 9.07886ZM10.8241 4.75524C9.65631 4.75568 2.48041 4.75481 1.31217 4.75524C0.597043 4.75524 0.0150846 5.3372 0.0150846 6.05233V6.89975V9.96087C-0.0506343 10.9765 0.0501059 12.0353 1.31217 12.1054H2.1596C2.5712 12.1093 10.694 12.1028 10.8241 12.1054C11.5392 12.1054 12.1212 11.5234 12.1212 10.8083V9.96087V6.89975C12.1869 5.88414 12.0862 4.82529 10.8241 4.75524ZM9.54908 11.2407H2.5872C2.48646 10.3422 1.77825 9.63401 0.879807 9.53327V7.32779C1.77825 7.22662 2.48646 6.51841 2.5872 5.61997H9.54865C9.64982 6.51841 10.358 7.22662 11.256 7.32736V9.53283C10.358 9.63401 9.64982 10.3422 9.54908 11.2407ZM10.8241 5.61997C11.288 5.62083 11.2746 6.12756 11.2565 6.46307C10.8332 6.37703 10.4998 6.04282 10.4134 5.61997H10.8241ZM0.879807 6.05233C0.880672 5.5884 1.3874 5.60181 1.72291 5.61997C1.63644 6.04282 1.30266 6.3766 0.879807 6.46307V6.05233ZM1.31217 11.2407C0.848245 11.2398 0.861648 10.7331 0.879807 10.3976C1.30309 10.484 1.63644 10.8178 1.72291 11.2407H1.31217ZM11.2565 10.8083C11.2556 11.2722 10.7489 11.2588 10.4134 11.2407C10.4998 10.8178 10.8336 10.484 11.2565 10.3976V10.8083ZM4.03302 2.46676C3.86396 2.2977 3.86396 2.02445 4.03302 1.8554C4.09009 1.81951 5.87228 -0.0383435 5.90298 0.0325637C6.06079 -0.0344523 6.25449 0.00446024 6.37425 0.126386L8.10327 1.8554C8.50493 2.24582 7.88319 2.86972 7.49191 2.46676L6.5005 1.47535V3.89052C6.5005 4.12919 6.30724 4.32288 6.06814 4.32288C5.82905 4.32288 5.63578 4.12919 5.63578 3.89052V1.47535L4.64438 2.46676C4.47532 2.63581 4.20207 2.63581 4.03302 2.46676Z" fill="#0D0D0C"/>
</svg>
